<svg id="图层_1" data-name="图层 1" xmlns="http://www.w3.org/2000/svg" viewBox="0 0 147.5 147.5"><defs><style>.cls-1{fill:#3fb09a;}</style></defs><title>账户总览</title><path class="cls-1" d="M101.87,29.88a73.75,73.75,0,1,0,73.75,73.75,73.79,73.79,0,0,0-73.75-73.75h0Zm0,10.68a63.06,63.06,0,0,1,63.06,63.07,61.06,61.06,0,0,1-12.72,37.64,58.45,58.45,0,0,0-33.56-25.43A30.91,30.91,0,1,0,70.34,90.4a31.79,31.79,0,0,0,13.73,25.95C70.34,120.41,58.64,130.07,51,142.29A62.56,62.56,0,0,1,38.3,104.13c0.5-35.59,28.48-63.57,63.57-63.57h0ZM81.54,90.4a20.34,20.34,0,1,1,20.34,20.34A20.4,20.4,0,0,1,81.54,90.4ZM59.14,149.91A49.09,49.09,0,0,1,102.38,124c18.81,0,34.58,10.17,43.23,25.43a62.46,62.46,0,0,1-43.23,17.29C85.09,166.69,70.34,160.6,59.14,149.91Z" transform="translate(-28.12 -29.88)"/></svg>
