<svg id="account-circle-line" xmlns="http://www.w3.org/2000/svg" width="20" height="20" viewBox="0 0 20 20">
  <path id="路径_2502" data-name="路径 2502" d="M0,0H20V20H0Z" fill="none"/>
  <path id="路径_2503" data-name="路径 2503" d="M10,18a8,8,0,1,1,8-8A8,8,0,0,1,10,18ZM6.01,15a6.4,6.4,0,0,0,8.123-.118A5.6,5.6,0,0,0,6.01,15ZM4.893,13.856a7.2,7.2,0,0,1,10.325-.149,6.4,6.4,0,1,0-10.325.15ZM10,10.8a3.2,3.2,0,1,1,3.2-3.2A3.2,3.2,0,0,1,10,10.8Zm0-1.6A1.6,1.6,0,1,0,8.4,7.6,1.6,1.6,0,0,0,10,9.2Z" fill="#555"/>
</svg>
