<svg id="图层_1" data-name="图层 1" xmlns="http://www.w3.org/2000/svg" viewBox="0 0 200 200"><defs><style>.cls-1{fill:#3fb09a;}</style></defs><title>账户-发送信息-通讯录</title><path class="cls-1" d="M55.7,155c-6.26,0-6.26-12.83-.67-15.58,0.31,0,13-10.19,21.07-14.72C84.41,120,97,113,97,109.23l0-3.55a41.84,41.84,0,0,1-12.3-30.2c0-18.1,3.39-36.63,28.47-36.63s28.45,18.53,28.45,36.63a42,42,0,0,1-12.28,30.21v3.62c0.07,3.69,12.65,10.76,20.92,15.43,9.06,5.1,14.5,8.75,21.09,14.7S178,155,171.42,155H55.7Z" transform="translate(-1 1)"/><path class="cls-1" d="M201,27.58A28.59,28.59,0,0,0,172.41-1H43.85A28.56,28.56,0,0,0,15.29,27.56h0V41.86H8.15a7.14,7.14,0,1,0,0,14.29h7.14V91.86H8.15a7.15,7.15,0,0,0,0,14.29h7.14v35.7H8.15a7.16,7.16,0,0,0,0,14.31h7.14v14.3A28.59,28.59,0,0,0,43.85,199H172.41A28.59,28.59,0,0,0,201,170.46m-14.31,0a14.28,14.28,0,0,1-14.29,14.25H43.85a14.28,14.28,0,0,1-14.29-14.25v-14.3h7.12a7.16,7.16,0,0,0,0-14.31H29.56v-35.7h7.12a7.15,7.15,0,0,0,.6-14.29H29.56V56.15h7.12a7.15,7.15,0,0,0,0-14.3H29.56V27.58A14.28,14.28,0,0,1,43.85,13.3H172.41A14.28,14.28,0,0,1,186.7,27.58" transform="translate(-1 1)"/></svg>
