<svg id="图层_1" data-name="图层 1" xmlns="http://www.w3.org/2000/svg" viewBox="0 0 207.13 206.98"><defs><style>.cls-1{fill:#3fb09a;stroke:#3fb09a;stroke-miterlimit:10;stroke-width:7px;}</style></defs><title>区块列表</title><path class="cls-1" d="M-686.25,138.16l81.84,43a17,17,0,0,0,18.71,0L-501,135.41a12.48,12.48,0,0,0,5.74-12.48l-99.8,52.4s-88.82-46.78-99.8-52A19.34,19.34,0,0,0-686.25,138.16Zm-2.87-40.3,84.71,40.67a16.72,16.72,0,0,0,18.84,0l84.71-40.67a13.1,13.1,0,0,0,1.63-18.45,13.1,13.1,0,0,0-1.63-1.63l-84.71-47.66a15.84,15.84,0,0,0-18.84,0L-689.12,77.9a12.48,12.48,0,0,0-2.5,17.47A12.48,12.48,0,0,0-689.12,97.86ZM-680.63,84l77.85-45.91a13.22,13.22,0,0,1,15.72,0l74.85,43c5.36,3.24,8.11,8.73,2.87,11.48L-586.94,130a13.85,13.85,0,0,1-15.72,0l-77.85-37.43c-5.49-3.24-5.36-4.87,0-8.61h-0.12Zm-14.22,82a12.48,12.48,0,0,0,5.74,12.48l84.71,45.66a16.59,16.59,0,0,0,18.71,0L-501,178.45A12.48,12.48,0,0,0-495.25,166l-99.8,52s-76.85-39.67-99.8-52h0Z" transform="translate(698.74 -23.52)"/></svg>
