<svg id="图层_1" data-name="图层 1" xmlns="http://www.w3.org/2000/svg" viewBox="0 0 155.6 155.6"><defs><style>.cls-1{fill:#493eda;}</style></defs><title>关闭</title><path class="cls-1" d="M104.48,31.7a77.8,77.8,0,1,0,77.8,77.8A77.76,77.76,0,0,0,104.48,31.7Zm41.2,117.1a5.74,5.74,0,0,1-7.9,0l-31.45-31.45L74.88,148.8a5.59,5.59,0,0,1-7.9-7.9l31.45-31.45L67.08,78.1A5.59,5.59,0,0,1,75,70.2l31.35,31.35L137.68,70.2a5.59,5.59,0,0,1,7.9,7.9l-31.35,31.35,31.45,31.45A5.74,5.74,0,0,1,145.68,148.8Z" transform="translate(-26.68 -31.7)"/></svg>