<svg id="图层_1" data-name="图层 1" xmlns="http://www.w3.org/2000/svg" viewBox="0 0 200 168.57"><defs><style>.cls-1{fill:#333;}</style></defs><title>控制台</title><path class="cls-1" d="M-229.29,44.71H-400.71A14.33,14.33,0,0,0-415,59V199a14.33,14.33,0,0,0,14.29,14.29h171.43A14.33,14.33,0,0,0-215,199V59A14.33,14.33,0,0,0-229.29,44.71ZM-400.71,199V81.86h171.43V199H-400.71Z" transform="translate(415 -44.71)"/><rect class="cls-1" x="92.86" y="100" width="52.86" height="14.29"/><polygon class="cls-1" points="45.65 50.41 35.55 60.52 62.82 87.79 35.55 115.07 45.65 125.17 83.02 87.79 45.65 50.41"/></svg>