<svg id="图层_1" data-name="图层 1" xmlns="http://www.w3.org/2000/svg" viewBox="0 0 178.13 199.63"><defs><style>.cls-1{fill:#3fb09a;}</style></defs><title>复制账户</title><path class="cls-1" d="M186.84,40.7a7.44,7.44,0,0,0-5.76-2.75H58.67a7.44,7.44,0,0,0-5.76,2.75,9.89,9.89,0,0,0-2.42,6.8V190.23A10,10,0,0,0,52.91,197a7.35,7.35,0,0,0,5.76,2.83h93.81c0.74,0,2.15-.94,4.24-2.83s4.49-4.26,7.21-7.13,5.61-6,8.61-9.55,5.74-6.86,8.18-10,4.49-6,6.11-8.42,2.42-4.06,2.42-4.94V47.5A9.89,9.89,0,0,0,186.84,40.7ZM62.15,105.63a4.19,4.19,0,0,1,4.2-4.2H173.42a4.19,4.19,0,0,1,4.2,4.2v3.26a4.19,4.19,0,0,1-4.2,4.2H66.35a4.19,4.19,0,0,1-4.2-4.2v-3.26ZM177.68,138a4.19,4.19,0,0,1-4.2,4.2H66.41a4.19,4.19,0,0,1-4.2-4.2v-3.26a4.19,4.19,0,0,1,4.2-4.2H173.48a4.19,4.19,0,0,1,4.2,4.2V138Zm0-58.22a4.19,4.19,0,0,1-4.2,4.2H66.41a4.19,4.19,0,0,1-4.2-4.2V76.56a4.19,4.19,0,0,1,4.2-4.2H173.48a4.19,4.19,0,0,1,4.2,4.2v3.26Z" transform="translate(-11.13 -0.16)"/><path class="cls-1" d="M33.55,23.13H157.44v-19a4,4,0,0,0-4-4H15.12a4,4,0,0,0-4,4v176a4,4,0,0,0,4,4H33.54v-161h0Z" transform="translate(-11.13 -0.16)"/></svg>
