<svg xmlns="http://www.w3.org/2000/svg" xmlns:xlink="http://www.w3.org/1999/xlink" width="20" height="20" viewBox="0 0 20 20">
  <defs>
    <clipPath id="clip-path">
      <rect id="矩形_7762" data-name="矩形 7762" width="20" height="20" transform="translate(418 738) rotate(90)" fill="#359836" stroke="#707070" stroke-width="1"/>
    </clipPath>
  </defs>
  <g id="Daimond" transform="translate(-398 -738)">
    <g id="arrow-right-s-fill" transform="translate(418 738) rotate(90)">
      <path id="路径_2466" data-name="路径 2466" d="M0,0H20V20H0Z" fill="none"/>
      <path id="路径_2467" data-name="路径 2467" d="M13.333,10l-5,5V5Z" fill="#359836"/>
    </g>
    <g id="蒙版组_1099" data-name="蒙版组 1099" clip-path="url(#clip-path)">
      <g id="vip-diamond-line" transform="translate(398 738)">
        <path id="路径_2476" data-name="路径 2476" d="M0,0H20V20H0Z" fill="none"/>
        <path id="路径_2477" data-name="路径 2477" d="M4.061,2.5H15.939a.833.833,0,0,1,.674.343L19.8,7.223a.417.417,0,0,1-.031.528L10.306,18a.417.417,0,0,1-.588.023Q9.709,18.017.232,7.751A.417.417,0,0,1,.2,7.223l3.186-4.38A.833.833,0,0,1,4.061,2.5Zm.425,1.667L2.153,7.375,10,15.875l7.847-8.5L15.514,4.167H4.486Z" fill="#359836"/>
      </g>
    </g>
  </g>
</svg>
