<svg xmlns="http://www.w3.org/2000/svg" width="250" height="250" viewBox="0 0 250 250">
  <defs>
    <style>
      .cls-1 {
        fill: #493eda;
      }

      .cls-2 {
        fill: none;
      }

      .cls-3 {
        fill: #fff;
      }
    </style>
  </defs>
  <g id="组_2" data-name="组 2" transform="translate(-537 -152)">
    <circle id="椭圆_3" data-name="椭圆 3" class="cls-1" cx="125" cy="125" r="125" transform="translate(537 152)"/>
    <g id="fire-line" transform="translate(576.366 191.366)">
      <path id="路径_7" data-name="路径 7" class="cls-2" d="M0,0H171.268V171.268H0Z"/>
      <path id="路径_8" data-name="路径 8" class="cls-3" d="M59.271,155.623c30.25,0,54.773-24.071,54.773-53.764,0-6.208-1.68-12.165-3.652-17.706q-18.261,17.71-27.752,17.706C111.817,51.68,95.786,30.174,51.968,1.5c3.652,35.843-20.419,52.144-30.22,61.2A53.071,53.071,0,0,0,8.356,121.67a54.772,54.772,0,0,0,50.915,33.953ZM64.456,28.274c23.669,19.713,23.786,35.033,5.5,66.481C64.4,104.311,71.43,116.2,82.641,116.2a32.966,32.966,0,0,0,15.475-4.265,40.414,40.414,0,0,1-75.55,5.888,38.911,38.911,0,0,1,9.187-44.684c.92-.846,5.587-4.91,5.791-5.09,3.1-2.724,5.645-5.14,8.165-7.785,8.983-9.448,15.439-19.928,18.74-31.986Z" transform="translate(26.363 8.787)"/>
    </g>
  </g>
</svg>
