<svg id="图层_1" data-name="图层 1" xmlns="http://www.w3.org/2000/svg" viewBox="0 0 193 193"><defs><style>.cls-1{fill:#493eda;}</style></defs><title>信息</title><path class="cls-1" d="M52.58,177.34" transform="translate(-4 -4.06)"/><path class="cls-1" d="M100.5,4.06a96.5,96.5,0,1,0,96.5,96.5,96.5,96.5,0,0,0-96.5-96.5h0Zm49.63,121.23a12.43,12.43,0,0,1-12.42,12.42H106.3l-20.72,14a8,8,0,0,1-12.46-6.62v-7.39H62.29a12.43,12.43,0,0,1-12.42-12.42V67.61A12.43,12.43,0,0,1,62.29,55.19h75.42a12.43,12.43,0,0,1,12.42,12.42v57.67h0Z" transform="translate(-4 -4.06)"/><path class="cls-1" d="M72.64,88.29a8.4,8.4,0,0,0-8.4,8.4h0a8.4,8.4,0,0,0,16.8,0h0a8.4,8.4,0,0,0-8.4-8.4h0Zm28.37,0a8.4,8.4,0,0,0-8.4,8.4h0a8.4,8.4,0,0,0,16.8,0h0A8.4,8.4,0,0,0,101,88.29Z" transform="translate(-4 -4.06)"/><path class="cls-1" d="M120.78,96.68a8.4,8.4,0,1,0,8.4-8.4A8.4,8.4,0,0,0,120.78,96.68Z" transform="translate(-4 -4.06)"/></svg>