<?xml version="1.0" encoding="utf-8"?>
<!-- Generator: Adobe Illustrator 19.2.1, SVG Export Plug-In . SVG Version: 6.00 Build 0)  -->
<svg version="1.1" id="图层_1" xmlns="http://www.w3.org/2000/svg" xmlns:xlink="http://www.w3.org/1999/xlink" x="0px" y="0px"
	 viewBox="0 0 88 100" style="enable-background:new 0 0 88 100;" xml:space="preserve">
<style type="text/css">
	.st0{fill:#493EDA;}
</style>
<path class="st0" d="M85.1,23L46.9,0.9c-1.8-1-4-1-5.7,0L2.9,23C1.1,24,0,25.9,0,28v44.2c0,2,1.1,3.9,2.9,5l38.3,22.1
	c1.8,1,4,1,5.7,0l38.3-22.1c1.8-1,2.9-2.9,2.9-5V28C88,25.9,86.9,24,85.1,23z M72.1,63.8c0,1.5-0.8,2.9-2.1,3.7L46.1,81.3
	c-0.6,0.4-1.4,0.6-2.1,0.6c-0.8,0-1.5-0.2-2.1-0.6L18,67.5c-1.3-0.8-2.1-2.2-2.1-3.7v-8.5c0-1.1,0.6-2.1,1.5-2.7
	c1-0.6,2.1-0.6,3.1,0c0.9,0.5,1.5,1.6,1.5,2.7v7.4l22,12.7l22-12.7v-5.7L44.3,44.5c-1.5-0.8-2-2.7-1.1-4.2c0.4-0.7,1.1-1.2,1.9-1.4
	c0.8-0.2,1.6-0.1,2.3,0.3l23,13.3c1,0.6,1.7,1.7,1.7,2.9l0,1.7V63.8z M72.1,44.6c0,1.1-0.6,2.1-1.5,2.6c-1,0.6-2.1,0.6-3.1,0
	c-1-0.5-1.6-1.6-1.6-2.7v-7.2L44,24.7L22,37.4v5.5L44,54.7c0.7,0.4,1.3,1.1,1.5,1.9c0.2,0.8,0.1,1.6-0.3,2.4
	c-0.5,0.9-1.6,1.5-2.7,1.5c-0.5,0-1-0.1-1.5-0.4L17.7,47.5c-1.1-0.6-1.8-1.8-1.8-3.1v-8.1c0-1.5,0.8-2.9,2.1-3.7l23.8-13.8
	c1.3-0.8,3-0.8,4.3,0L70,32.6c1.3,0.8,2.1,2.2,2.1,3.7V44.6z"/>
</svg>
