<?xml version="1.0" encoding="utf-8"?>
<!-- Generator: Adobe Illustrator 22.0.0, SVG Export Plug-In . SVG Version: 6.00 Build 0)  -->
<svg version="1.1" id="图层_1" xmlns="http://www.w3.org/2000/svg" xmlns:xlink="http://www.w3.org/1999/xlink" x="0px" y="0px"
	 viewBox="0 0 800 600" style="enable-background:new 0 0 800 600;" xml:space="preserve">
<style type="text/css">
	.st0{fill-rule:evenodd;clip-rule:evenodd;fill:url(#SVGID_1_);}
</style>
<linearGradient id="SVGID_1_" gradientUnits="userSpaceOnUse" x1="547.7789" y1="56.6494" x2="252.2356" y2="568.5453">
	<stop  offset="0" style="stop-color:#BCD300"/>
	<stop  offset="1" style="stop-color:#009FE8"/>
</linearGradient>
<path class="st0" d="M229.1,102.6c80.2,0,149.9,45,185.3,111.1c26.5,49.5,14,106.9,37.1,155.5c15.5,32.7,44.1,58.1,79.1,69.3V295.3
	c0-11.8,18.2-21.4,40.4-21.4l0,0c22.2,0,40.4,9.6,40.4,21.4v143.2c53.2-17.1,91.8-67,91.8-125.9c0-73-59.2-132.2-132.2-132.2
	c-32.2,0-61.7,11.5-84.7,30.7l10.8,14.8l-70.2-10.9l5.2-78.3l8.4,11.5c35.8-28.5,81.2-45.5,130.5-45.5c116,0,210,94.1,210,210
	c0,116-94.1,210-210,210c-97.7,0-179.8-66.7-203.3-157.1c-11.9-45.7-2.4-91.4-32.5-131.8c-16.3-21.9-39.2-38.6-65.7-47.1v143.2
	c0,11.8-18.2,21.4-40.4,21.4l0,0c-22.2,0-40.4-9.6-40.4-21.4V186.7c-53.2,17.1-91.8,67-91.8,125.9c0,73,59.2,132.2,132.2,132.2
	c32.2,0,61.7-11.5,84.6-30.7l-9.2-12.7l70.2,10.9l-5.2,78.3l-9.9-13.6c-35.8,28.5-81.2,45.5-130.5,45.5c-116,0-210-94.1-210-210
	C19,196.6,113.1,102.6,229.1,102.6z"/>
</svg>
