<svg id="图层_1" data-name="图层 1" xmlns="http://www.w3.org/2000/svg" viewBox="0 0 215 215"><defs><style>.cls-1{fill:#3fb09a;}.cls-2{fill:none;stroke:#3fb09a;stroke-miterlimit:10;stroke-width:15px;}</style></defs><title>矿工信息</title><path class="cls-1" d="M159,131.17a74.81,74.81,0,0,0-16.47-16,5.63,5.63,0,0,0-1-.44l-1.65,1.53-6.62,6.3a9.69,9.69,0,0,1-1.16.81c-2-1.33-31.06-29.43-43.56-42-0.4-.4-0.74-0.84-1.14-1.28,0.59-1.46,2-2.12,2.72-3.43a8.33,8.33,0,0,0-.42-0.79L74,53a5.63,5.63,0,0,0-.84-0.77L52.51,75.66a10.42,10.42,0,0,0-.64.94,5.78,5.78,0,0,0,.77.52l25.58,11.8c1.6-.74,2.22-2.44,3.7-3.06,1.7,1.36,27.85,27.78,41.83,42.32,0.4,0.4.74,0.86,1.21,1.43-2.3,3.46-4.74,6.77-7.09,10.32,0.57,0.77,1,1.38,1.41,2a93.55,93.55,0,0,0,10.32,11.48,53.19,53.19,0,0,0,8.4,6.54,27.48,27.48,0,0,0,7.11,3.21A13.7,13.7,0,0,0,157,161.49H156.9A17.73,17.73,0,0,0,164.41,142,32.76,32.76,0,0,0,159,131.17Z" transform="translate(-0.94 -0.5)"/><circle class="cls-2" cx="107.5" cy="107.5" r="100"/></svg>
