<svg id="图层_1" data-name="图层 1" xmlns="http://www.w3.org/2000/svg" viewBox="0 0 175.23 175.27"><defs><style>.cls-1{fill:#a2a0bc;}.cls-2{fill:#eceef1;}</style></defs><title>存储交易</title><circle class="cls-1" cx="88.57" cy="94.57" r="74.45"/><path class="cls-2" d="M103.67,14.21A87.62,87.62,0,0,0,16,101.82v0a87.62,87.62,0,1,0,175.23.05v-0.05A87.62,87.62,0,0,0,103.67,14.21Zm43.8,129.44H120.09a5.48,5.48,0,0,1-5.48-5.48V123.12a4.11,4.11,0,0,1,4.11-4.11h8.38c4,0,5.15-2.77,2.5-6.15L108.48,86a5.86,5.86,0,0,0-9.65,0L77.72,112.87c-2.65,3.38-1.53,6.15,2.5,6.15H88.6a4.11,4.11,0,0,1,4.11,4.11v15.06a5.48,5.48,0,0,1-5.48,5.48H65.33A27.36,27.36,0,0,1,61.2,89.24a43.78,43.78,0,0,1,86.27,10.61A21.9,21.9,0,0,1,147.47,143.66Z" transform="translate(-16.04 -14.21)"/></svg>