<svg id="图层_1" data-name="图层 1" xmlns="http://www.w3.org/2000/svg" viewBox="0 0 200 200"><defs><style>.cls-1{fill:#eceef1;}.cls-2{fill:#a2a0bc;}</style></defs><title>矿工数量</title><path class="cls-1" d="M100,0A100,100,0,1,0,200,100,100,100,0,0,0,100,0Z" transform="translate(0 0)"/><path class="cls-2" d="M126.19,110.85c-6.67,5.33-25.53,16.58-51.67-.42-7.87,5.92-28.87,22.9-26.53,34.37,0,0,.42,12,22.63,12.52,0,0,66.22,4.78,77.22-6.35h0s12-7.58-3.88-24.3Z" transform="translate(0 0)"/><path class="cls-2" d="M122,102.81a35.16,35.16,0,0,0,12-26.65c0-19.07-14.63-34.5-32.67-34.5v0c-18.07,0-32.7,15.43-32.7,34.47a35.28,35.28,0,0,0,9.65,24.47C79,101.31,99.82,120.08,122,102.81Z" transform="translate(0 0)"/></svg>