<svg id="图层_1" data-name="图层 1" xmlns="http://www.w3.org/2000/svg" viewBox="0 0 184.62 184.63"><defs><style>.cls-1{fill:#a2a0bc;}.cls-2{fill:#eceef1;}</style></defs><title>别名修改</title><circle class="cls-1" cx="94.92" cy="95.09" r="82.11"/><path class="cls-2" d="M97,12.69A92.32,92.32,0,1,0,189.31,105v0A92.31,92.31,0,0,0,97,12.69Zm39.62,43.08a16.05,16.05,0,0,0,2.31-3.08c1.54-1.92,3.85-1.54,5.38-1.15s3.85,2.31,5,4.23a4,4,0,0,1,0,5A17.38,17.38,0,0,1,147,63.85l-10.38-8.08h0Zm7.31,12.31s-18.46,23.85-19.23,25c-0.77.77-1.54,1.15-2.31,1.92a63.7,63.7,0,0,1-9.23,4.23c-1.92.38-2.31,0-2.31-1.92a57.62,57.62,0,0,1,1.54-9.23,22.06,22.06,0,0,1,1.54-2.69C115.08,83.85,133.54,60,133.54,60Zm-17.69,52.31H75.46c-0.77,0-1.15-.77-1.54-1.92v-7.69a1.88,1.88,0,0,1,1.15-1.92h51.15a1.76,1.76,0,0,1,1.54,1.92v7.69A1.76,1.76,0,0,1,126.23,120.38Zm1.54,9.62v7.69a1.76,1.76,0,0,1-1.54,1.92H75.46c-0.77,0-1.15-.77-1.54-1.92V130a1.88,1.88,0,0,1,1.15-1.92h51.15A1.76,1.76,0,0,1,127.77,130Zm23.08,18.85a10.18,10.18,0,0,1-10,10H60.46a9.52,9.52,0,0,1-9.62-9.62V61.15a10.18,10.18,0,0,1,10-10h67.31l-8.08,11.54H62.38v84.62h76.92V83.85l11.54-8.08v73.08Z" transform="translate(-4.69 -12.69)"/></svg>