<svg id="图层_1" data-name="图层 1" xmlns="http://www.w3.org/2000/svg" viewBox="0 0 200 200"><defs><style>.cls-1{fill:#a2a0bc;}.cls-2{fill:#eceef1;}</style></defs><title>CoinBase交易</title><circle class="cls-1" cx="100.7" cy="102.36" r="68.03"/><path class="cls-2" d="M107.5-3C52.5-3,7.5,42,7.5,97s45,100,100,100,100-45,100-100S162.5-3,107.5-3ZM70.83,61.3c0-7.71,16.37-14.45,36.6-14.45S144,52.63,144,61.3V70c0,7.71-16.37,14.45-36.6,14.45S70.83,77.67,70.83,70V61.3Zm0,20.23c8.67,6.74,22.15,8.67,36.6,8.67s27.93-2.89,36.6-8.67v8.67c0,7.71-16.37,14.45-36.6,14.45s-36.6-6.74-36.6-14.45V81.52Zm74.17,52c0,7.71-16.37,14.45-36.6,14.45s-36.6-6.74-36.6-14.45v-8.67c7.71,5.78,22.15,8.67,35.64,8.67s27.93-2.89,37.56-8.67v8.67Zm0-22.15c0,7.71-16.37,14.45-36.6,14.45s-36.6-6.74-36.6-14.45v-8.67c7.71,5.78,22.15,8.67,35.64,8.67s27.93-2.89,37.56-8.67v8.67Z" transform="translate(-7.5 3)"/></svg>