<svg id="图层_1" data-name="图层 1" xmlns="http://www.w3.org/2000/svg" viewBox="0 0 143.26 143.2"><defs><style>.cls-1{fill:#493eda;}</style></defs><title>网络总览</title><path class="cls-1" d="M139.16,146.69a141,141,0,0,0-.5-18.39,11.46,11.46,0,0,0,5.57-6.66q6.58-.37,13.63-1.4A61.87,61.87,0,0,1,139.16,146.69ZM86.63,159.25c12.13-14.36,28.93-26,39.23-32.35a11.47,11.47,0,0,0,5.17,2.56,134.22,134.22,0,0,1,.25,22.68,60.93,60.93,0,0,1-44.65,7.12h0ZM49,133.74a109.15,109.15,0,0,1,12.44-32,11.55,11.55,0,0,0,2.59.31,11.34,11.34,0,0,0,5.12-1.24A108,108,0,0,0,120.75,121c-11.41,7.12-29.42,19.87-42.06,35.89A61.94,61.94,0,0,1,49,133.74h0ZM43.6,74.31a109.29,109.29,0,0,0,9.7,12.21A11.15,11.15,0,0,0,55,97.59a119.49,119.49,0,0,0-11.41,26.33A61.14,61.14,0,0,1,43.6,74.31ZM73.72,43.45A110.27,110.27,0,0,1,89.33,53.7a11.4,11.4,0,0,0-1,4.66,11.22,11.22,0,0,0,.35,2.7A114.8,114.8,0,0,0,67.81,79.72a10.94,10.94,0,0,0-9.49.91,98.33,98.33,0,0,1-10.59-14A62,62,0,0,1,73.72,43.45ZM126,43.32a144.29,144.29,0,0,0-18.1,6.82,11.33,11.33,0,0,0-13.24-2A123.32,123.32,0,0,0,83,39.94a60.78,60.78,0,0,1,43,3.38h0ZM73.84,84.53a108.13,108.13,0,0,1,19.09-17A11.23,11.23,0,0,0,105,68.59a105.85,105.85,0,0,1,21.92,40,11.65,11.65,0,0,0-4.18,4.93,100.88,100.88,0,0,1-48.2-18.3A11.35,11.35,0,0,0,73.84,84.53Zm87.82,14.59a61.85,61.85,0,0,1-1.42,13A145.55,145.55,0,0,1,144,114a11.47,11.47,0,0,0-9.54-7.2A113.33,113.33,0,0,0,110.39,63a11.41,11.41,0,0,0,1-4.61,12.39,12.39,0,0,0-.13-1.3,138.38,138.38,0,0,1,24-8.43,61.55,61.55,0,0,1,26.42,50.5h0ZM100,27.52a71.6,71.6,0,1,0,71.63,71.6A71.69,71.69,0,0,0,100,27.52Z" transform="translate(-28.37 -27.52)"/></svg>