<svg id="图层_1" data-name="图层 1" xmlns="http://www.w3.org/2000/svg" viewBox="0 0 200 150.32"><defs><style>.cls-1{fill:#3fb09a;}</style></defs><title>普通支付</title><path class="cls-1" d="M191.95,23.84H8a8,8,0,0,0-8,8.05V49.6H200V31.89A8,8,0,0,0,191.95,23.84Z" transform="translate(0 -23.84)"/><path class="cls-1" d="M200,73.5v92.61a8,8,0,0,1-8.05,8.05H8a8,8,0,0,1-8-8V73.5H200Zm-124.84,25H25.24v15.3H75.17V98.46h0Zm25.51,34.9H25.24v15.3h75.44v-15.3Zm-0.28-34.9H85.1v15.3h15.3V98.46Z" transform="translate(0 -23.84)"/></svg>
