<svg id="图层_1" data-name="图层 1" xmlns="http://www.w3.org/2000/svg" viewBox="0 0 195.97 200"><defs><style>.cls-1{fill:#3fb09a;}</style></defs><title>节点</title><path class="cls-1" d="M13.29,117.45a11.23,11.23,0,0,0,5.09-2.55c1.45-1.45,2.18-2.91,1.82-4.73v-1.45c0-28,15.64-53.82,40-67.64a8.46,8.46,0,0,0,3.27-4A6.19,6.19,0,0,0,62.75,32c-1.09-1.82-2.18-2.91-4-3.27a5.8,5.8,0,0,0-5.45.73A91.58,91.58,0,0,0,6.39,109.09V112C6.75,114.91,9.66,117.45,13.29,117.45Zm121.82-76c24.73,13.82,40.36,39.64,40.36,67.64v1.09a4.53,4.53,0,0,0,1.09,4.36c1.45,1.82,2.91,2.91,5.45,2.91h0.73a6.69,6.69,0,0,0,6.55-6.18v-2.55a90.58,90.58,0,0,0-46.91-79.27c-1.82-1.09-3.27-1.09-5.45-.73-1.82.36-2.91,1.82-4.36,3.27-1.09,1.82-1.45,3.64-.73,5.09A7,7,0,0,0,135.11,41.45Zm5.45,132.73h-1.82l-1.82.73c-24,13.82-55.64,13.82-79.64,0l-0.73-.36H54.39c-4,0-6.55,2.91-6.55,6.91,0,2.55,1.09,4.36,3.27,6.18A92.76,92.76,0,0,0,97.66,200a90.45,90.45,0,0,0,46.55-12.73c3.27-2.55,4-4.36,4-6.18-0.73-3.64-3.64-6.91-7.64-6.91h0Z" transform="translate(0 0)"/><path class="cls-1" d="M195.11,144.73a24.24,24.24,0,0,0-11.64-15.64c-4.36-2.91-9.09-2.91-12.36-2.91A24.85,24.85,0,0,0,154,133.09l-0.36.36-20.73-12v-0.36a38.22,38.22,0,0,0,2.18-12c0-17.45-12.36-32.36-29.82-36h-0.36V48.73h0.36a24.66,24.66,0,0,0,17.82-24C122.39,11.27,111.48,0,97.66,0A24.83,24.83,0,0,0,72.93,25.09c0,10.91,6.91,20.36,17.82,24h0.36V72.73H90.39a36.6,36.6,0,0,0-29.82,36,32,32,0,0,0,2.18,12v0.36L42,133.09l-0.36-.36a27.83,27.83,0,0,0-17.09-6.55,32.44,32.44,0,0,0-12.36,2.91A21.59,21.59,0,0,0,.93,144c-1.45,6.55-1.45,13.45,1.82,18.91,3.64,8,12,12.73,21.45,12.73,5.82,0,10.18-2.18,12.36-2.91,9.45-5.09,14.18-16,11.27-27.27v-0.36L68.2,133.45l0.36,0.36A37.35,37.35,0,0,0,96.2,146.55a36.29,36.29,0,0,0,28-12.73l0.36-.36,20.36,11.64v0.36c-2.18,10.18,2.18,20.73,11.27,26.91,3.64,2.55,9.45,4,14.91,4A7.09,7.09,0,0,0,174,176a23.91,23.91,0,0,0,17.82-11.64c4.73-8,4.73-13.09,3.27-19.64h0ZM35.48,153.45A10.83,10.83,0,0,1,30,160a8,8,0,0,1-5.82,1.82A11.79,11.79,0,0,1,14.39,156a11.28,11.28,0,0,1-1.45-8.36c0.73-2.91,2.55-5.09,5.45-6.91a9.8,9.8,0,0,1,5.45-1.82,11.79,11.79,0,0,1,9.82,5.82,11.36,11.36,0,0,1,1.82,8.73h0ZM86,25.09A11.27,11.27,0,1,1,97.29,36.36,11.57,11.57,0,0,1,86,25.09ZM97.66,132C84.93,132,74,121.82,74,108.73A23.28,23.28,0,0,1,97.66,85.45c12.73,0,23.64,10.18,23.64,23.27A23.75,23.75,0,0,1,97.66,132Zm83.27,24a10.4,10.4,0,0,1-9.09,5.45,10.54,10.54,0,0,1-6.55-1.82c-2.55-1.82-4.73-4-5.45-7.27a7.62,7.62,0,0,1,1.45-7.27,12.68,12.68,0,0,1,9.45-6.18h1.09a8.41,8.41,0,0,1,6.55,2.55c4.36,3.64,5.09,9.09,2.55,14.55h0Z" transform="translate(0 0)"/></svg>
