<svg xmlns="http://www.w3.org/2000/svg" xmlns:xlink="http://www.w3.org/1999/xlink" width="20" height="20" viewBox="0 0 20 20">
  <defs>
    <clipPath id="clip-path">
      <rect id="矩形_7766" data-name="矩形 7766" width="20" height="20" transform="translate(418 784) rotate(90)" fill="#359836" stroke="#707070" stroke-width="1"/>
    </clipPath>
  </defs>
  <g id="矿池_点中_" data-name="矿池（点中）" transform="translate(-398 -784)" clip-path="url(#clip-path)">
    <g id="server-fill" transform="translate(398 784)">
      <path id="路径_2500" data-name="路径 2500" d="M0,0H20V20H0Z" fill="none"/>
      <path id="路径_2501" data-name="路径 2501" d="M3.333,2.5H16.667a.833.833,0,0,1,.833.833V9.167H2.5V3.333A.833.833,0,0,1,3.333,2.5ZM2.5,10.833h15v5.833a.833.833,0,0,1-.833.833H3.333a.833.833,0,0,1-.833-.833Zm3.333,2.5V15h2.5V13.333ZM5.833,5V6.667h2.5V5Z" fill="#3fb09a"/>
    </g>
  </g>
</svg>
