<svg xmlns="http://www.w3.org/2000/svg" xmlns:xlink="http://www.w3.org/1999/xlink" width="20" height="20" viewBox="0 0 20 20">
  <defs>
    <clipPath id="clip-path">
      <rect id="矩形_7765" data-name="矩形 7765" width="20" height="20" transform="translate(360 784)" fill="#359836" stroke="#707070" stroke-width="1"/>
    </clipPath>
  </defs>
  <g id="矿池" transform="translate(-360 -784)" clip-path="url(#clip-path)">
    <g id="server-line" transform="translate(360 784)">
      <path id="路径_2498" data-name="路径 2498" d="M0,0H20V20H0Z" fill="none"/>
      <path id="路径_2499" data-name="路径 2499" d="M4.167,9.167H15.833v-5H4.167ZM17.5,3.333V16.667a.833.833,0,0,1-.833.833H3.333a.833.833,0,0,1-.833-.833V3.333A.833.833,0,0,1,3.333,2.5H16.667A.833.833,0,0,1,17.5,3.333Zm-1.667,7.5H4.167v5H15.833Zm-10,1.667h2.5v1.667h-2.5Zm0-6.667h2.5V7.5h-2.5Z" fill="#555"/>
    </g>
  </g>
</svg>
