<svg id="图层_1" data-name="图层 1" xmlns="http://www.w3.org/2000/svg" viewBox="0 0 175 175"><defs><style>.cls-1{fill:#3fb09a;}</style></defs><title>账户详情-二维码</title><path class="cls-1" d="M-481,22.5h50A12.5,12.5,0,0,1-418.5,35V85A12.5,12.5,0,0,1-431,97.5h-50A12.5,12.5,0,0,1-493.5,85V35A12.5,12.5,0,0,1-481,22.5ZM-468.5,35A12.5,12.5,0,0,0-481,47.5v25A12.5,12.5,0,0,0-468.5,85h25A12.5,12.5,0,0,0-431,72.5v-25A12.5,12.5,0,0,0-443.5,35h-25ZM-381,22.5h50A12.5,12.5,0,0,1-318.5,35V85A12.5,12.5,0,0,1-331,97.5h-50A12.5,12.5,0,0,1-393.5,85V35A12.5,12.5,0,0,1-381,22.5ZM-368.5,35A12.5,12.5,0,0,0-381,47.5v25A12.5,12.5,0,0,0-368.5,85h25A12.5,12.5,0,0,0-331,72.5v-25A12.5,12.5,0,0,0-343.5,35h-25ZM-481,122.5h50A12.5,12.5,0,0,1-418.5,135v50A12.5,12.5,0,0,1-431,197.5h-50A12.5,12.5,0,0,1-493.5,185V135A12.5,12.5,0,0,1-481,122.5Zm12.5,12.5A12.5,12.5,0,0,0-481,147.5v25A12.5,12.5,0,0,0-468.5,185h25A12.5,12.5,0,0,0-431,172.5v-25A12.5,12.5,0,0,0-443.5,135h-25Zm0-87.5h25v25h-25v-25Zm0,100h25v25h-25v-25Zm100-100h25v25h-25v-25Zm-25,75H-381v25h-12.5v-25Zm50,0h25v25h-25v-25Zm-25,0H-356V160h-12.5V122.5Zm-25,37.5H-381v37.5h-12.5V160Zm50,25H-331v12.5h-12.5V185Zm-25-12.5H-356v25h-12.5v-25ZM-331,160h12.5v25H-331V160Z" transform="translate(493.5 -22.5)"/></svg>
