<svg id="图层_1" data-name="图层 1" xmlns="http://www.w3.org/2000/svg" viewBox="0 0 173.66 173.66"><defs><style>.cls-1{fill:#493eda;stroke:#493eda;stroke-miterlimit:10;stroke-width:4px;}</style></defs><title>收支明细</title><path class="cls-1" d="M132.74,132.47H59.58a4.67,4.67,0,1,0,0,9.33h73.19a4.81,4.81,0,0,0,4.92-4.65,4.86,4.86,0,0,0-5-4.68h0Zm9.4-32.68h-92a4.69,4.69,0,1,0,0,9.37h92a4.69,4.69,0,1,0,0-9.37h0ZM59.58,76.49h73.19a4.67,4.67,0,1,0,0-9.33H59.58A4.67,4.67,0,1,0,59.58,76.49ZM96.16,19.65A84.83,84.83,0,1,0,181,104.48,84.9,84.9,0,0,0,96.16,19.65Zm0,163.35a78.52,78.52,0,1,1,78.52-78.52A78.6,78.6,0,0,1,96.16,183Z" transform="translate(-9.33 -17.65)"/></svg>