<svg id="图层_1" data-name="图层 1" xmlns="http://www.w3.org/2000/svg" viewBox="0 0 149.91 149.92"><defs><style>.cls-1{fill:#493eda;}</style></defs><title>账户详情-设置账户名</title><path class="cls-1" d="M87.36,34.4h78.12V165.52H34.36V34.4h53M173.64,25c-0.19,0-.41,0-0.6,0H26.78C25,25,25,25.06,25,26.79V173.15c0,1.69.05,1.75,1.73,1.75H173.07c1.76,0,1.79,0,1.79-1.77V26.77a1.83,1.83,0,0,0,0-.83,2.57,2.57,0,0,0-.87-0.89,0.65,0.65,0,0,0-.33-0.07h0Z" transform="translate(-24.99 -24.98)"/><path class="cls-1" d="M131.18,56.36L145.9,71.17c-0.14.15-.37,0.4-0.61,0.64L83.93,133.06a14.83,14.83,0,0,1-5.3,3.43c-4.78,1.81-9.53,3.69-14.31,5.52a12.34,12.34,0,0,1-2,.54A1.9,1.9,0,0,1,60,140.23c0.6-2.12,1.29-4.23,2.05-6.3,1.41-3.8,2.9-7.57,4.34-11.35a12.8,12.8,0,0,1,3-4.58q30.54-30.43,61-60.91C130.68,56.83,131,56.58,131.18,56.36Z" transform="translate(-24.99 -24.98)"/></svg>