<?xml version="1.0" encoding="utf-8"?>
<!-- Generator: Adobe Illustrator 19.2.1, SVG Export Plug-In . SVG Version: 6.00 Build 0)  -->
<svg version="1.1" id="图层_1" xmlns="http://www.w3.org/2000/svg" xmlns:xlink="http://www.w3.org/1999/xlink" x="0px" y="0px"
	 viewBox="0 0 200 200" style="enable-background:new 0 0 200 200;" xml:space="preserve">
<style type="text/css">
	.st0{fill:#3fb09a;}
</style>
<path class="st0" d="M100,0C44.8,0,0,44.8,0,100s44.8,100,100,100s100-44.8,100-100S155.2,0,100,0z M90.7,113.3
	c-11.9,0-24.4-2.6-31.9-7.8v16.7c0,4.8,12.2,11.9,31.9,11.9v7c-18.9,0-38.9-6.7-38.9-18.9V67c0-12.2,20-18.9,38.9-18.9
	s38.9,6.7,38.9,18.9v20.4h-7v-9.6c-7.4,5.2-20,7.8-31.9,7.8S66.3,83,58.9,77.8v16.7c0,4.8,12.2,11.9,31.9,11.9L90.7,113.3
	L90.7,113.3z M148.1,138.5c0,6.7-9.3,13.3-26.3,13.3s-26.3-6.7-26.3-13.3V103c0-6.7,8.9-13.3,26.3-13.3c17,0,26.3,6.7,26.3,13.3
	V138.5z"/>
<path class="st0" d="M90.7,78.5c19.6,0,31.9-7,31.9-11.9s-12.2-11.9-31.9-11.9s-31.9,7-31.9,11.9C58.9,71.9,71.1,78.5,90.7,78.5z
	 M121.9,96.7c-12.6,0-19.3,4.4-19.3,6.3s6.7,6.3,19.3,6.3c12.6,0,19.3-4.4,19.3-6.3C141.1,100.7,134.4,96.7,121.9,96.7z M102.6,130
	v8.5c0,1.9,6.7,6.3,19.3,6.3c12.6,0,19.3-4.4,19.3-6.3V130c-4.4,2.6-10.7,4.1-19.3,4.1S107,132.2,102.6,130z M102.6,112.2v8.5
	c0,1.9,6.7,6.3,19.3,6.3c12.6,0,19.3-4.4,19.3-6.3v-8.5c-4.4,2.6-10.7,4.1-19.3,4.1C113.3,115.9,107,114.4,102.6,112.2z"/>
</svg>
