<svg id="图层_1" data-name="图层 1" xmlns="http://www.w3.org/2000/svg" viewBox="0 0 174.62 174.83"><defs><style>.cls-1{fill:#3fb09a;}</style></defs><title>交易记录</title><path class="cls-1" d="M25.2,105.9a75.08,75.08,0,0,1,138-47.3L80.5,141.3a6,6,0,0,0-1.3,6.7,6.28,6.28,0,0,0,5.7,3.7l34.6-.7a6.12,6.12,0,0,0,6-6.2,6,6,0,0,0-1.9-4.4,6.21,6.21,0,0,0-4.3-1.6l-19.5.4,75.4-75.4a6.2,6.2,0,0,0,1-7.3A87,87,0,0,0,33,43.2,86.52,86.52,0,0,0,13.1,107a91.17,91.17,0,0,0,3.3,17.3,5.7,5.7,0,0,0,3,3.6,6.15,6.15,0,0,0,4.6.5,5.86,5.86,0,0,0,3.6-2.9,6.15,6.15,0,0,0,.5-4.6A76.49,76.49,0,0,1,25.2,105.9ZM187,91.3a6.13,6.13,0,0,0-6.6-5.5,6.06,6.06,0,0,0-5.5,6.6A75.26,75.26,0,0,1,106.8,174,76.18,76.18,0,0,1,43,148.1L126.1,65a6.11,6.11,0,0,0,1.2-6.9,6.2,6.2,0,0,0-6.1-3.5L86.4,57.7a6.12,6.12,0,0,0,1.1,12.2l18.1-1.6L30.4,143.4a6.09,6.09,0,0,0-.5,8,89.05,89.05,0,0,0,70.4,35.1c2.5,0,5.1-.1,7.6-0.3A87.56,87.56,0,0,0,187,91.3Z" transform="translate(-12.73 -11.67)"/></svg>
