<?xml version="1.0" standalone="no"?><!DOCTYPE svg PUBLIC "-//W3C//DTD SVG 1.1//EN" "http://www.w3.org/Graphics/SVG/1.1/DTD/svg11.dtd"><svg t="1599460259451" class="icon" viewBox="170 170 720 720" version="1.1" xmlns="http://www.w3.org/2000/svg" p-id="1357" xmlns:xlink="http://www.w3.org/1999/xlink" ><defs><style type="text/css"></style></defs><path d="M512 176c-194.4 0-352 157.6-352 352 0 194.416 157.6 352 352 352s352-157.584 352-352C864 333.584 706.4 176 512 176zM512 720.592c-22.304 0-40.384-18.08-40.384-40.384 0-22.304 18.08-40.384 40.384-40.384 22.32 0 40.384 18.096 40.384 40.384C552.384 702.512 534.32 720.592 512 720.592zM534.256 589.504c-3.504 10.992-12.32 18-22.256 18-9.952 0-19.248-8.512-22.256-18C486.752 579.984 464 431.68 464 368.688c0-16 16-48.992 47.504-48.992S560 352.192 560 368.688C560 432.176 537.744 578.496 534.256 589.504z" p-id="1358" fill="#f4ea2a"></path></svg>