<?xml version="1.0" encoding="utf-8"?>
<!-- Generator: Adobe Illustrator 19.2.1, SVG Export Plug-In . SVG Version: 6.00 Build 0)  -->
<svg version="1.1" id="图层_1" xmlns="http://www.w3.org/2000/svg" xmlns:xlink="http://www.w3.org/1999/xlink" x="0px" y="0px"
	 viewBox="0 0 1920 1080" style="enable-background:new 0 0 1920 1080;" xml:space="preserve">
<style type="text/css">
	.st0{fill:none;stroke:#F7F8FA;stroke-miterlimit:10;}
	.st1{fill:#EDF2F8;}
</style>
<polyline class="st0" points="37,0 58.5,191.6 406.8,499.9 621.8,550.6 933,678 1111,616.5 1315,485 1562.5,384.5 1741,239 
	1763.8,0 "/>
<polyline class="st0" points="58.5,0 406.8,500.1 705.2,686.6 933,678 1295,644 1315,485 1507.5,720.3 1562.5,384.5 1877.5,474.5 
	1741,239 1920,303.5 "/>
<polyline class="st0" points="0,200 58.5,191.6 151.2,435.9 155.8,437.1 406.8,500.1 17,777.5 226.5,1010.5 423.8,994.3 431,692 
	408.5,496.5 "/>
<line class="st0" x1="151.2" y1="435.9" x2="0" y2="400"/>
<polyline class="st0" points="148.7,439 69.3,626 58.3,190.3 "/>
<line class="st0" x1="68" y1="624.7" x2="0" y2="610"/>
<line class="st0" x1="71.7" y1="627.7" x2="279.3" y2="768.7"/>
<polyline class="st0" points="0,740.3 18.3,777 406.8,500.1 "/>
<line class="st0" x1="14.8" y1="777.9" x2="0" y2="790"/>
<path class="st0" d="M18.3,779.3"/>
<line class="st0" x1="74.7" y1="959" x2="0" y2="862.7"/>
<line class="st0" x1="72" y1="960.3" x2="0" y2="996"/>
<line class="st0" x1="75" y1="961" x2="169.3" y2="1080"/>
<line class="st0" x1="221.7" y1="1011.7" x2="181" y2="1080"/>
<line class="st0" x1="278.7" y1="768.3" x2="77.3" y2="958"/>
<line class="st0" x1="280.7" y1="769.7" x2="226.3" y2="1005.8"/>
<line class="st0" x1="285.8" y1="769.5" x2="426.5" y2="692"/>
<line class="st0" x1="282" y1="771.5" x2="644.3" y2="857"/>
<line class="st0" x1="426.3" y1="994" x2="645.8" y2="859.5"/>
<polyline class="st0" points="649.5,861 598.3,985 600.1,1080 "/>
<line class="st0" x1="424.3" y1="997.3" x2="428.3" y2="1078.3"/>
<polyline class="st0" points="796.8,1023.5 845.5,831.3 651.3,855.8 "/>
<line class="st0" x1="431.8" y1="690" x2="702.5" y2="690.3"/>
<line class="st0" x1="705.8" y1="690.5" x2="840.5" y2="827.8"/>
<line class="st0" x1="644.3" y1="852.5" x2="434" y2="692.5"/>
<polyline class="st0" points="653.5,859.8 1008.3,961 1189.5,802.1 847.5,828.3 1294.3,645.5 1187.3,796.8 933.5,680.3 843.5,827 
	"/>
<polyline class="st0" points="1010.5,962.8 803.3,1020.8 835,1080 "/>
<line class="st0" x1="796" y1="1027.8" x2="783" y2="1080"/>
<line class="st0" x1="1013.8" y1="966.3" x2="1001" y2="1080"/>
<polyline class="st0" points="1015.3,966.5 1431,866.3 1483.3,976.8 1263,1007.3 1193.5,803.8 1430.8,863.3 1502.8,724.8 
	1296.3,644.8 "/>
<polyline class="st0" points="1190.5,797.3 1512,724 1667.5,898.3 1485.8,973.3 1522.5,1080 "/>
<line class="st0" x1="1476.5" y1="982" x2="1418.3" y2="1080"/>
<line class="st0" x1="1475" y1="972.3" x2="1190.8" y2="801.3"/>
<polyline class="st0" points="1439.3,867 1740.5,791.8 1513,720.5 1626.5,570.8 1319.3,485.3 "/>
<polyline class="st0" points="1631,564 1740.5,242.8 1746.8,611.3 1668.5,903.5 1644.3,1080 "/>
<line class="st0" x1="1435.5" y1="871" x2="1690.3" y2="1080"/>
<line class="st0" x1="1782.8" y1="983.5" x2="1671" y2="901.8"/>
<polyline class="st0" points="1711.3,1080 1778.5,987.8 1920,1064.4 "/>
<line class="st0" x1="1783.8" y1="980.8" x2="1920" y2="819.4"/>
<line class="st0" x1="1743.8" y1="795" x2="1920" y2="813.8"/>
<polyline class="st0" points="1742.5,787.3 1876,477.8 1920,691 "/>
<polyline class="st0" points="1880,469.8 1897,101.5 1840.8,0 "/>
<polyline class="st0" points="1744.8,235.5 1902.8,107.3 1920,140.8 "/>
<line class="st0" x1="1904.5" y1="102.8" x2="1920" y2="98"/>
<line class="st0" x1="1744.5" y1="229.3" x2="1889.5" y2="0"/>
<line class="st0" x1="1883.5" y1="474.8" x2="1920" y2="501"/>
<line class="st0" x1="1753.8" y1="611" x2="1920" y2="614.7"/>
<line class="st0" x1="1257.2" y1="1008.8" x2="1259.9" y2="1080"/>
<line class="st0" x1="1253.5" y1="1005.7" x2="1061.3" y2="1080"/>
<line class="st0" x1="1017.5" y1="968.3" x2="1254" y2="1003.2"/>
<line class="st0" x1="152" y1="443" x2="282" y2="763.8"/>
<line class="st0" x1="433.5" y1="685.8" x2="620.5" y2="556"/>
<line class="st0" x1="625.5" y1="554.3" x2="706.8" y2="685"/>
<circle class="st1" cx="58.5" cy="191.6" r="9.6"/>
<circle class="st1" cx="151.2" cy="435.9" r="9.6"/>
<circle class="st1" cx="406.8" cy="499.9" r="9.6"/>
<circle class="st1" cx="621.8" cy="550.6" r="9.6"/>
<circle class="st1" cx="705.2" cy="686.6" r="9.6"/>
<circle class="st1" cx="428.5" cy="692.6" r="9.6"/>
<circle class="st1" cx="281.2" cy="766.9" r="9.6"/>
<circle class="st1" cx="67.2" cy="622.3" r="9.6"/>
<circle class="st1" cx="14.8" cy="777.9" r="9.6"/>
<circle class="st1" cx="76.5" cy="959.6" r="9.6"/>
<circle class="st1" cx="228.2" cy="1010.3" r="9.6"/>
<circle class="st1" cx="423.8" cy="994.3" r="9.6"/>
<circle class="st1" cx="597.5" cy="989.9" r="9.6"/>
<circle class="st1" cx="648.2" cy="859.3" r="9.6"/>
<circle class="st1" cx="844.5" cy="832.9" r="9.6"/>
<circle class="st1" cx="933" cy="678" r="9.6"/>
<circle class="st1" cx="1112" cy="615.5" r="9.6"/>
<circle class="st1" cx="1315" cy="485" r="9.6"/>
<circle class="st1" cx="1562.5" cy="384.5" r="9.6"/>
<circle class="st1" cx="1741" cy="239" r="9.6"/>
<circle class="st1" cx="1900.3" cy="103.7" r="9.6"/>
<circle class="st1" cx="1877.5" cy="474.5" r="9.6"/>
<circle class="st1" cx="1628" cy="572" r="9.6"/>
<circle class="st1" cx="798.2" cy="1025.3" r="9.6"/>
<circle class="st1" cx="1012.8" cy="964.9" r="9.6"/>
<circle class="st1" cx="1189.5" cy="802.1" r="9.6"/>
<circle class="st1" cx="1260.5" cy="1005.6" r="9.6"/>
<circle class="st1" cx="1432.2" cy="865.6" r="9.6"/>
<circle class="st1" cx="1481.5" cy="977.6" r="9.6"/>
<circle class="st1" cx="1667.5" cy="898.3" r="9.6"/>
<circle class="st1" cx="1741.5" cy="791.3" r="9.6"/>
<circle class="st1" cx="1507.5" cy="720.3" r="9.6"/>
<circle class="st1" cx="1293.5" cy="642.9" r="9.6"/>
<circle class="st1" cx="1749.5" cy="613.3" r="9.6"/>
<circle class="st1" cx="1780.8" cy="981.9" r="9.6"/>
</svg>
