<svg xmlns="http://www.w3.org/2000/svg" xmlns:xlink="http://www.w3.org/1999/xlink" width="20" height="20" viewBox="0 0 20 20">
  <defs>
    <clipPath id="clip-path">
      <rect id="矩形_7764" data-name="矩形 7764" width="20" height="20" transform="translate(497 738) rotate(90)" fill="#359836" stroke="#707070" stroke-width="1"/>
    </clipPath>
  </defs>
  <g id="about" transform="translate(-477 -738)" clip-path="url(#clip-path)">
    <g id="building-4-line" transform="translate(477 738)">
      <path id="路径_2484" data-name="路径 2484" d="M0,0H20V20H0Z" fill="none"/>
      <path id="路径_2485" data-name="路径 2485" d="M17.5,16.667h1.667v1.667H.833V16.667H2.5V2.5a.833.833,0,0,1,.833-.833H16.667A.833.833,0,0,1,17.5,2.5Zm-1.667,0V3.333H4.167V16.667Zm-9.167-7.5h2.5v1.667h-2.5Zm0-3.333h2.5V7.5h-2.5Zm0,6.667h2.5v1.667h-2.5Zm4.167,0h2.5v1.667h-2.5Zm0-3.333h2.5v1.667h-2.5Zm0-3.333h2.5V7.5h-2.5Z" fill="#493eda"/>
    </g>
  </g>
</svg>
