<svg xmlns="http://www.w3.org/2000/svg" xmlns:xlink="http://www.w3.org/1999/xlink" width="50" height="50" viewBox="0 0 50 50">
  <defs>
    <linearGradient id="linear-gradient" x1="0.5" x2="0.5" y2="1" gradientUnits="objectBoundingBox">
      <stop offset="0" stop-color="#ffda1c"/>
      <stop offset="1" stop-color="#f1ca00"/>
    </linearGradient>
    <clipPath id="clip-path">
      <rect id="矩形_7758" data-name="矩形 7758" width="24" height="24" transform="translate(1538 675)" fill="#fff" stroke="#707070" stroke-width="1"/>
    </clipPath>
  </defs>
  <g id="组_3300" data-name="组 3300" transform="translate(-1525 -662)">
    <circle id="椭圆_1564" data-name="椭圆 1564" cx="25" cy="25" r="25" transform="translate(1525 662)" fill="url(#linear-gradient)"/>
    <g id="蒙版组_1096" data-name="蒙版组 1096" clip-path="url(#clip-path)">
      <g id="mail-add-line" transform="translate(1538 675)">
        <path id="路径_2458" data-name="路径 2458" d="M0,0H24V24H0Z" fill="none"/>
        <path id="路径_2459" data-name="路径 2459" d="M22,13H20V5.238L4,5.216V19H14v2H3a1,1,0,0,1-1-1V4A1,1,0,0,1,3,3H21a1,1,0,0,1,1,1ZM4.511,5h0ZM21,18h3v2H21v3H19V20H16V18h3V15h2Z" fill="#fff"/>
      </g>
    </g>
  </g>
</svg>
