<?xml version="1.0" encoding="utf-8"?>
<!-- Generator: Adobe Illustrator 19.2.1, SVG Export Plug-In . SVG Version: 6.00 Build 0)  -->
<svg version="1.1" id="图层_1" xmlns="http://www.w3.org/2000/svg" xmlns:xlink="http://www.w3.org/1999/xlink" x="0px" y="0px"
	 viewBox="0 0 200 200" style="enable-background:new 0 0 200 200;" xml:space="preserve">
<style type="text/css">
	.st0{fill:#493EDA;}
</style>
<g>
	<polygon class="st0" points="124.1,87 100.5,63.4 53.8,114.4 53.8,135.1 74.9,135.1 	"/>
	<polygon class="st0" points="119.9,45.5 143.5,69.2 152.9,59.9 129,36.2 	"/>
	<path class="st0" d="M100,0C44.8,0,0,44.8,0,100s44.8,100,100,100c55.2,0,100-44.8,100-100S155.2,0,100,0z M45.2,110.3l52.1-55.7
		c0,0,0,0,0,0c1.6-1.6,4.3-1.6,5.9,0L133,83.9c0.1,0.1,0.1,0.1,0.2,0.2c1.5,1.8,1.3,4.4-0.5,5.9l-54.1,53.7H49.4
		c-2.2-0.2-4-2-4.2-4.2V110.3z M155,160.3c-0.3,0-0.7,0-1,0H45.2c-2.3-0.3-3.9-2.4-3.6-4.7c0.2-1.9,1.7-3.4,3.6-3.6H154
		c2.3-0.3,4.4,1.3,4.7,3.6C159,157.9,157.3,160,155,160.3z M158.7,65.7L143.5,81l-35.4-35.4l15-15.2c1.6-1.6,3.7-2.5,5.9-2.5
		c2.3-0.1,4.5,0.8,6.1,2.5l23.5,23.6c0,0,0,0,0,0C162,57.2,162,62.5,158.7,65.7z"/>
</g>
</svg>
