<svg xmlns="http://www.w3.org/2000/svg" viewBox="0 0 88 100"><path d="M85.1 23L46.9.9c-1.8-1-4-1-5.7 0L2.9 23C1.1 24 0 25.9 0 28v44.2c0 2 1.1 3.9 2.9 5l38.3 22.1c1.8 1 4 1 5.7 0l38.3-22.1c1.8-1 2.9-2.9 2.9-5V28c-.1-2.1-1.2-4-3-5zm-13 40.8c0 1.5-.8 2.9-2.1 3.7L46.1 81.3c-.6.4-1.4.6-2.1.6-.8 0-1.5-.2-2.1-.6L18 67.5c-1.3-.8-2.1-2.2-2.1-3.7v-8.5c0-1.1.6-2.1 1.5-2.7 1-.6 2.1-.6 3.1 0 .9.5 1.5 1.6 1.5 2.7v7.4l22 12.7 22-12.7V57L44.3 44.5c-1.5-.8-2-2.7-1.1-4.2.4-.7 1.1-1.2 1.9-1.4.8-.2 1.6-.1 2.3.3l23 13.3c1 .6 1.7 1.7 1.7 2.9v8.4zm0-19.2c0 1.1-.6 2.1-1.5 2.6-1 .6-2.1.6-3.1 0-1-.5-1.6-1.6-1.6-2.7v-7.2L44 24.7 22 37.4v5.5l22 11.8c.7.4 1.3 1.1 1.5 1.9.2.8.1 1.6-.3 2.4-.5.9-1.6 1.5-2.7 1.5-.5 0-1-.1-1.5-.4L17.7 47.5c-1.1-.6-1.8-1.8-1.8-3.1v-8.1c0-1.5.8-2.9 2.1-3.7l23.8-13.8c1.3-.8 3-.8 4.3 0L70 32.6c1.3.8 2.1 2.2 2.1 3.7v8.3z" fill="#493eda"/></svg>