<svg id="图层_1" data-name="图层 1" xmlns="http://www.w3.org/2000/svg" viewBox="0 0 163.66 163.66"><defs><style>.cls-1{fill:#ff2626;}</style></defs><title>节点详情-失败</title><path class="cls-1" d="M-160.83,79.82a81.55,81.55,0,0,0-17.53-26,81.55,81.55,0,0,0-26-17.53,81.33,81.33,0,0,0-31.85-6.43,81.33,81.33,0,0,0-31.85,6.43,81.55,81.55,0,0,0-26,17.53,81.55,81.55,0,0,0-17.53,26,81.32,81.32,0,0,0-6.43,31.85,81.33,81.33,0,0,0,6.43,31.85,81.56,81.56,0,0,0,17.53,26,81.54,81.54,0,0,0,26,17.53,81.32,81.32,0,0,0,31.85,6.43,81.32,81.32,0,0,0,31.85-6.43,81.55,81.55,0,0,0,26-17.53,81.55,81.55,0,0,0,17.53-26,81.33,81.33,0,0,0,6.43-31.85A81.32,81.32,0,0,0-160.83,79.82Zm-31.3,67.47-8.48,8.48-35.61-35.61-35.9,35.9-8.48-8.48,35.9-35.9-35.9-35.9,8.48-8.48,35.9,35.9,35.9-35.9,8.48,8.48-35.9,35.9,35.61,35.61h0Z" transform="translate(318.06 -29.84)"/></svg>