<svg id="图层_1" data-name="图层 1" xmlns="http://www.w3.org/2000/svg" viewBox="0 0 171.43 137.08"><defs><style>.cls-1{fill:#fff;}</style></defs><title>发送消息</title><path class="cls-1" d="M173.41,143.1a10.26,10.26,0,0,1-10.24,10.25H36.84A10.26,10.26,0,0,1,26.59,143.1v-92A10.25,10.25,0,0,1,36.84,40.88H163.16a10.25,10.25,0,0,1,10.24,10.24v92ZM163.16,28.57H36.84A22.57,22.57,0,0,0,14.29,51.12v92a22.57,22.57,0,0,0,22.55,22.55H163.16a22.57,22.57,0,0,0,22.55-22.55v-92A22.57,22.57,0,0,0,163.16,28.57ZM151.88,65L100,94.89,47.26,65a6.31,6.31,0,0,0-8.39,2.31,6.16,6.16,0,0,0,2.31,8.39L100,109.07l58-33.44a6.16,6.16,0,0,0,2.26-8.41,6.33,6.33,0,0,0-8.4-2.25h0Z" transform="translate(-14.29 -28.57)"/></svg>