<svg id="图层_1" data-name="图层 1" xmlns="http://www.w3.org/2000/svg" viewBox="0 0 171.61 171.61"><defs><style>.cls-1{fill:#a2a0bc;}.cls-2{fill:#eceef1;}</style></defs><title>转账交易</title><circle class="cls-1" cx="89" cy="89.5" r="68.03"/><path class="cls-2" d="M100,13.2A85.8,85.8,0,1,0,185.8,99,85.8,85.8,0,0,0,100,13.2ZM71.24,135.47H52.86v-6.33L71.24,115v20.48h0Zm23.14,0H76V111.59l9.5-7.31L94.39,113v22.44h0Zm23.14,0H99.15V120l18.38-18.1v33.57h0Zm23.14,0H122.29V97.14l10.47-10.32,7.91,7.26v41.39h0Zm-3.49-55.85-4.58-4.51-32.51,32-14.23-14L52.81,118.24V107.46l33.8-26.23,13.51,13.29,26.13-25.69-5-5,21.7-5.61-5.71,21.37h0Z" transform="translate(-14.2 -13.2)"/></svg>