<svg id="图层_1" data-name="图层 1" xmlns="http://www.w3.org/2000/svg" viewBox="0 0 111.12 111.12"><defs><style>.cls-1{fill:#a2a0bc;}.cls-2{fill:#eceef1;}</style></defs><title>总交易量</title><circle class="cls-1" cx="55.92" cy="58.7" r="42.42"/><path class="cls-2" d="M96.23,45.38a55.56,55.56,0,1,0,55.56,55.56A55.56,55.56,0,0,0,96.23,45.38ZM72.17,84.45H108l-3.16-3.7a5,5,0,1,1,7.43-6.7l0.17,0.2,10.23,12a5,5,0,0,1-3.8,8.25H72.17A5,5,0,0,1,72.17,84.45Zm14,36.75a5,5,0,1,1-7.43,6.7l-0.17-.2-10.24-12a5,5,0,0,1,3.8-8.25h46.68a5,5,0,0,1,0,10H83Z" transform="translate(-40.67 -45.38)"/></svg>