<svg id="图层_1" data-name="图层 1" xmlns="http://www.w3.org/2000/svg" viewBox="0 0 150 162.5"><defs><style>.cls-1{fill:#fff;}</style></defs><title>转账</title><path class="cls-1" d="M49,73.87H61.21v49.19a8.21,8.21,0,0,0,8.19,8.19h61.2a8.19,8.19,0,0,0,8.19-8.19h0V73.86H151a6.29,6.29,0,0,0,6.36-6.21,6.13,6.13,0,0,0-1.41-3.9,3.49,3.49,0,0,0-.66-0.73l-48.63-42a8.67,8.67,0,0,0-5.91-2.3,8.39,8.39,0,0,0-5.7,2.14L44.72,63a4.49,4.49,0,0,0-.79.87,6.13,6.13,0,0,0-1.32,3.8A6.3,6.3,0,0,0,49,73.87h0Z" transform="translate(-25 -18.75)"/><rect class="cls-1" y="150" width="150" height="12.5"/><rect class="cls-1" y="127.01" width="150" height="12.5"/></svg>